<svg width="283" height="43" viewBox="0 0 283 43" fill="none" xmlns="http://www.w3.org/2000/svg">
<mask id="path-1-outside-1_4576_53" maskUnits="userSpaceOnUse" x="0" y="0.5" width="397" height="42" fill="black">
<rect fill="white" y="0.5" width="397" height="42"/>
<path d="M23.032 3.268C27.1013 3.268 30.4987 3.75333 33.224 4.724C35.9493 5.69466 38.1147 7.02 39.72 8.7C41.3627 10.3427 42.52 12.2467 43.192 14.412C43.9013 16.5773 44.256 18.8547 44.256 21.244C44.256 23.6333 43.864 25.9293 43.08 28.132C42.3333 30.3347 41.12 32.2947 39.44 34.012C37.7973 35.692 35.6133 37.036 32.888 38.044C30.2 39.0147 26.9147 39.5 23.032 39.5H2.312V3.268H23.032ZM9.76 33.116H22.864C25.552 33.116 27.7733 32.7987 29.528 32.164C31.32 31.492 32.7387 30.596 33.784 29.476C34.8293 28.356 35.576 27.0867 36.024 25.668C36.472 24.2493 36.696 22.7747 36.696 21.244C36.696 19.7133 36.472 18.2573 36.024 16.876C35.576 15.4947 34.8293 14.2627 33.784 13.18C32.7387 12.0973 31.32 11.2387 29.528 10.604C27.7733 9.96933 25.552 9.652 22.864 9.652H9.76V33.116ZM58.9788 24.38V33.284H86.9228V39.5H51.5308V3.268H86.8668V9.484H58.9788V18.5H81.8268V24.38H58.9788ZM107.394 39.5L91.3778 3.268H99.6098L113.33 35.972H110.754L124.418 3.268H132.538L116.69 39.5H107.394ZM145.44 24.38V33.284H173.384V39.5H137.992V3.268H173.328V9.484H145.44V18.5H168.288V24.38H145.44ZM188.479 3.268V33.284H212.559V39.5H181.031V3.268H188.479ZM239.341 40.228C234.525 40.228 230.399 39.4813 226.965 37.988C223.567 36.4573 220.954 34.292 219.125 31.492C217.333 28.692 216.437 25.332 216.437 21.412C216.437 17.4547 217.333 14.076 219.125 11.276C220.954 8.476 223.567 6.32933 226.965 4.836C230.399 3.30533 234.525 2.54 239.341 2.54C244.194 2.54 248.319 3.30533 251.717 4.836C255.114 6.32933 257.709 8.476 259.501 11.276C261.33 14.076 262.245 17.4547 262.245 21.412C262.245 25.332 261.33 28.692 259.501 31.492C257.709 34.292 255.114 36.4573 251.717 37.988C248.319 39.4813 244.194 40.228 239.341 40.228ZM239.341 33.788C242.327 33.788 244.941 33.34 247.181 32.444C249.458 31.548 251.231 30.1853 252.501 28.356C253.807 26.5267 254.461 24.212 254.461 21.412C254.461 18.612 253.807 16.2973 252.501 14.468C251.231 12.6387 249.458 11.276 247.181 10.38C244.941 9.44667 242.327 8.98 239.341 8.98C236.391 8.98 233.759 9.44667 231.445 10.38C229.13 11.276 227.319 12.6387 226.013 14.468C224.706 16.2973 224.053 18.612 224.053 21.412C224.053 24.212 224.706 26.5267 226.013 28.356C227.319 30.1853 229.13 31.548 231.445 32.444C233.759 33.34 236.391 33.788 239.341 33.788ZM275.955 27.74V21.804H292.531C294.51 21.804 296.078 21.2813 297.235 20.236C298.392 19.1533 298.971 17.66 298.971 15.756C298.971 13.7773 298.392 12.2653 297.235 11.22C296.078 10.1747 294.51 9.652 292.531 9.652H276.851V39.5H269.403V3.268H291.859C293.875 3.268 295.76 3.51067 297.515 3.996C299.307 4.48133 300.856 5.228 302.163 6.236C303.507 7.244 304.552 8.532 305.299 10.1C306.046 11.668 306.419 13.5533 306.419 15.756C306.419 17.9213 306.046 19.7693 305.299 21.3C304.552 22.8307 303.507 24.0813 302.163 25.052C300.856 25.9853 299.307 26.676 297.515 27.124C295.76 27.5347 293.875 27.74 291.859 27.74H275.955ZM320.877 24.38V33.284H348.821V39.5H313.429V3.268H348.765V9.484H320.877V18.5H343.725V24.38H320.877ZM356.468 39.5V3.268H381.052C383.852 3.268 386.279 3.66 388.332 4.444C390.423 5.19067 392.047 6.38533 393.204 8.028C394.362 9.63333 394.94 11.7053 394.94 14.244C394.94 15.9613 394.642 17.4173 394.044 18.612C393.447 19.8067 392.607 20.7773 391.524 21.524C390.479 22.2707 389.266 22.8493 387.884 23.26C386.503 23.6333 385.028 23.876 383.46 23.988L382.676 23.54C385.29 23.5773 387.436 23.8013 389.116 24.212C390.796 24.5853 392.047 25.2947 392.868 26.34C393.727 27.348 394.156 28.86 394.156 30.876V39.5H386.708V31.38C386.708 29.9987 386.466 28.9347 385.98 28.188C385.495 27.404 384.618 26.8627 383.348 26.564C382.116 26.2653 380.324 26.116 377.972 26.116H363.916V39.5H356.468ZM363.916 20.292H381.052C383.143 20.292 384.73 19.788 385.812 18.78C386.932 17.772 387.492 16.4093 387.492 14.692C387.492 13.0493 386.932 11.7987 385.812 10.94C384.73 10.0813 383.143 9.652 381.052 9.652H363.916V20.292Z"/>
</mask>
<path d="M33.224 4.724L33.895 2.83993L33.224 4.724ZM39.72 8.7L38.274 10.0817L38.2897 10.0981L38.3058 10.1142L39.72 8.7ZM43.192 14.412L41.2819 15.0048L41.2865 15.0197L41.2914 15.0346L43.192 14.412ZM43.08 28.132L41.1958 27.4613L41.1907 27.4756L41.1859 27.4899L43.08 28.132ZM39.44 34.012L38.0103 32.6134L38.01 32.6138L39.44 34.012ZM32.888 38.044L33.5673 39.9251L33.5746 39.9225L33.5818 39.9198L32.888 38.044ZM2.312 39.5H0.312V41.5H2.312V39.5ZM2.312 3.268V1.268H0.312V3.268H2.312ZM9.76 33.116H7.76V35.116H9.76V33.116ZM29.528 32.164L30.2083 34.0448L30.2193 34.0408L30.2302 34.0367L29.528 32.164ZM33.784 29.476L35.2461 30.8406L33.784 29.476ZM36.024 25.668L34.1168 25.0657V25.0657L36.024 25.668ZM36.024 16.876L34.1216 17.493V17.493L36.024 16.876ZM33.784 13.18L35.2228 11.7908V11.7908L33.784 13.18ZM29.528 10.604L28.8477 12.4848L28.8603 12.4893L29.528 10.604ZM9.76 9.652V7.652H7.76V9.652H9.76ZM23.032 5.268C26.9583 5.268 30.1111 5.73837 32.553 6.60806L33.895 2.83993C30.8862 1.76829 27.2444 1.268 23.032 1.268V5.268ZM32.553 6.60806C35.0548 7.49914 36.9306 8.67583 38.274 10.0817L41.166 7.31828C39.2987 5.36417 36.8438 3.89019 33.895 2.83993L32.553 6.60806ZM38.3058 10.1142C39.7248 11.5332 40.7085 13.1573 41.2819 15.0048L45.1021 13.8192C44.3315 11.336 43.0005 9.15208 41.1342 7.28579L38.3058 10.1142ZM41.2914 15.0346C41.9317 16.9894 42.256 19.0558 42.256 21.244H46.256C46.256 18.6535 45.8709 16.1653 45.0926 13.7894L41.2914 15.0346ZM42.256 21.244C42.256 23.4099 41.9015 25.4787 41.1958 27.4613L44.9642 28.8026C45.8265 26.3799 46.256 23.8568 46.256 21.244H42.256ZM41.1859 27.4899C40.5386 29.3993 39.4879 31.103 38.0103 32.6134L40.8697 35.4106C42.7521 33.4863 44.1281 31.27 44.9741 28.7741L41.1859 27.4899ZM38.01 32.6138C36.6174 34.038 34.706 35.2392 32.1942 36.1682L33.5818 39.9198C36.5207 38.8328 38.9773 37.346 40.87 35.4102L38.01 32.6138ZM32.2087 36.1629C29.8011 37.0323 26.7605 37.5 23.032 37.5V41.5C27.0688 41.5 30.5989 40.997 33.5673 39.9251L32.2087 36.1629ZM23.032 37.5H2.312V41.5H23.032V37.5ZM4.312 39.5V3.268H0.312V39.5H4.312ZM2.312 5.268H23.032V1.268H2.312V5.268ZM9.76 35.116H22.864V31.116H9.76V35.116ZM22.864 35.116C25.6906 35.116 28.1622 34.7848 30.2083 34.0448L28.8477 30.2832C27.3844 30.8125 25.4134 31.116 22.864 31.116V35.116ZM30.2302 34.0367C32.241 33.2826 33.9442 32.2355 35.2461 30.8406L32.3219 28.1114C31.5331 28.9565 30.399 29.7014 28.8258 30.2913L30.2302 34.0367ZM35.2461 30.8406C36.4885 29.5095 37.3907 27.9816 37.9312 26.2703L34.1168 25.0657C33.7613 26.1917 33.1702 27.2025 32.3219 28.1114L35.2461 30.8406ZM37.9312 26.2703C38.4425 24.6512 38.696 22.973 38.696 21.244H34.696C34.696 22.5763 34.5015 23.8475 34.1168 25.0657L37.9312 26.2703ZM38.696 21.244C38.696 19.5152 38.4425 17.8502 37.9264 16.259L34.1216 17.493C34.5015 18.6645 34.696 19.9115 34.696 21.244H38.696ZM37.9264 16.259C37.3812 14.5777 36.4715 13.0841 35.2228 11.7908L32.3452 14.5692C33.1872 15.4413 33.7708 16.4116 34.1216 17.493L37.9264 16.259ZM35.2228 11.7908C33.9132 10.4345 32.2049 9.43033 30.1957 8.71874L28.8603 12.4893C30.4351 13.047 31.5641 13.7602 32.3452 14.5692L35.2228 11.7908ZM30.2083 8.72325C28.1622 7.98318 25.6906 7.652 22.864 7.652V11.652C25.4134 11.652 27.3844 11.9555 28.8477 12.4847L30.2083 8.72325ZM22.864 7.652H9.76V11.652H22.864V7.652ZM7.76 9.652V33.116H11.76V9.652H7.76ZM58.9788 24.38V22.38H56.9788V24.38H58.9788ZM58.9788 33.284H56.9788V35.284H58.9788V33.284ZM86.9228 33.284H88.9228V31.284H86.9228V33.284ZM86.9228 39.5V41.5H88.9228V39.5H86.9228ZM51.5308 39.5H49.5308V41.5H51.5308V39.5ZM51.5308 3.268V1.268H49.5308V3.268H51.5308ZM86.8668 3.268H88.8668V1.268H86.8668V3.268ZM86.8668 9.484V11.484H88.8668V9.484H86.8668ZM58.9788 9.484V7.484H56.9788V9.484H58.9788ZM58.9788 18.5H56.9788V20.5H58.9788V18.5ZM81.8268 18.5H83.8268V16.5H81.8268V18.5ZM81.8268 24.38V26.38H83.8268V24.38H81.8268ZM56.9788 24.38V33.284H60.9788V24.38H56.9788ZM58.9788 35.284H86.9228V31.284H58.9788V35.284ZM84.9228 33.284V39.5H88.9228V33.284H84.9228ZM86.9228 37.5H51.5308V41.5H86.9228V37.5ZM53.5308 39.5V3.268H49.5308V39.5H53.5308ZM51.5308 5.268H86.8668V1.268H51.5308V5.268ZM84.8668 3.268V9.484H88.8668V3.268H84.8668ZM86.8668 7.484H58.9788V11.484H86.8668V7.484ZM56.9788 9.484V18.5H60.9788V9.484H56.9788ZM58.9788 20.5H81.8268V16.5H58.9788V20.5ZM79.8268 18.5V24.38H83.8268V18.5H79.8268ZM81.8268 22.38H58.9788V26.38H81.8268V22.38ZM107.394 39.5L105.565 40.3086L106.091 41.5H107.394V39.5ZM91.3778 3.268V1.268H88.307L89.5486 4.0766L91.3778 3.268ZM99.6098 3.268L101.454 2.49429L100.94 1.268H99.6098V3.268ZM113.33 35.972V37.972H116.338L115.174 35.1983L113.33 35.972ZM110.754 35.972L108.908 35.201L107.751 37.972H110.754V35.972ZM124.418 3.268V1.268H123.086L122.572 2.49697L124.418 3.268ZM132.538 3.268L134.37 4.06949L135.596 1.268H132.538V3.268ZM116.69 39.5V41.5H117.998L118.522 40.3015L116.69 39.5ZM109.223 38.6914L93.2071 2.4594L89.5486 4.0766L105.565 40.3086L109.223 38.6914ZM91.3778 5.268H99.6098V1.268H91.3778V5.268ZM97.7655 4.04171L111.486 36.7457L115.174 35.1983L101.454 2.49429L97.7655 4.04171ZM113.33 33.972H110.754V37.972H113.33V33.972ZM112.599 36.743L126.263 4.03902L122.572 2.49697L108.908 35.201L112.599 36.743ZM124.418 5.268H132.538V1.268H124.418V5.268ZM130.705 2.46651L114.857 38.6985L118.522 40.3015L134.37 4.06949L130.705 2.46651ZM116.69 37.5H107.394V41.5H116.69V37.5ZM145.44 24.38V22.38H143.44V24.38H145.44ZM145.44 33.284H143.44V35.284H145.44V33.284ZM173.384 33.284H175.384V31.284H173.384V33.284ZM173.384 39.5V41.5H175.384V39.5H173.384ZM137.992 39.5H135.992V41.5H137.992V39.5ZM137.992 3.268V1.268H135.992V3.268H137.992ZM173.328 3.268H175.328V1.268H173.328V3.268ZM173.328 9.484V11.484H175.328V9.484H173.328ZM145.44 9.484V7.484H143.44V9.484H145.44ZM145.44 18.5H143.44V20.5H145.44V18.5ZM168.288 18.5H170.288V16.5H168.288V18.5ZM168.288 24.38V26.38H170.288V24.38H168.288ZM143.44 24.38V33.284H147.44V24.38H143.44ZM145.44 35.284H173.384V31.284H145.44V35.284ZM171.384 33.284V39.5H175.384V33.284H171.384ZM173.384 37.5H137.992V41.5H173.384V37.5ZM139.992 39.5V3.268H135.992V39.5H139.992ZM137.992 5.268H173.328V1.268H137.992V5.268ZM171.328 3.268V9.484H175.328V3.268H171.328ZM173.328 7.484H145.44V11.484H173.328V7.484ZM143.44 9.484V18.5H147.44V9.484H143.44ZM145.44 20.5H168.288V16.5H145.44V20.5ZM166.288 18.5V24.38H170.288V18.5H166.288ZM168.288 22.38H145.44V26.38H168.288V22.38ZM188.479 3.268H190.479V1.268H188.479V3.268ZM188.479 33.284H186.479V35.284H188.479V33.284ZM212.559 33.284H214.559V31.284H212.559V33.284ZM212.559 39.5V41.5H214.559V39.5H212.559ZM181.031 39.5H179.031V41.5H181.031V39.5ZM181.031 3.268V1.268H179.031V3.268H181.031ZM186.479 3.268V33.284H190.479V3.268H186.479ZM188.479 35.284H212.559V31.284H188.479V35.284ZM210.559 33.284V39.5H214.559V33.284H210.559ZM212.559 37.5H181.031V41.5H212.559V37.5ZM183.031 39.5V3.268H179.031V39.5H183.031ZM181.031 5.268H188.479V1.268H181.031V5.268ZM226.965 37.988L226.143 39.8115L226.155 39.8169L226.167 39.8221L226.965 37.988ZM219.125 31.492L217.44 32.5701L217.445 32.578L217.45 32.5859L219.125 31.492ZM219.125 11.276L217.45 10.1821L217.445 10.19L217.44 10.1979L219.125 11.276ZM226.965 4.836L227.77 6.66695L227.779 6.6628L226.965 4.836ZM251.717 4.836L250.895 6.65947L250.904 6.66323L250.912 6.66693L251.717 4.836ZM259.501 11.276L257.816 12.3541L257.821 12.362L257.826 12.3699L259.501 11.276ZM259.501 31.492L257.826 30.3981L257.821 30.406L257.816 30.4139L259.501 31.492ZM251.717 37.988L252.522 39.8189L252.53 39.8152L252.538 39.8115L251.717 37.988ZM247.181 32.444L246.448 30.5828L246.438 30.587L247.181 32.444ZM252.501 28.356L250.873 27.1935L250.865 27.2046L250.858 27.2158L252.501 28.356ZM252.501 14.468L250.858 15.6082L250.865 15.6194L250.873 15.6305L252.501 14.468ZM247.181 10.38L246.412 12.2262L246.43 12.2338L246.449 12.2411L247.181 10.38ZM231.445 10.38L232.167 12.2451L232.18 12.2401L232.193 12.2349L231.445 10.38ZM226.013 28.356L227.64 27.1935L226.013 28.356ZM231.445 32.444L230.723 34.3091L231.445 32.444ZM239.341 38.228C234.724 38.228 230.884 37.5113 227.762 36.1539L226.167 39.8221C229.914 41.4514 234.326 42.228 239.341 42.228V38.228ZM227.786 36.1645C224.696 34.7722 222.396 32.8428 220.799 30.3981L217.45 32.5859C219.512 35.7412 222.439 38.1425 226.143 39.8115L227.786 36.1645ZM220.809 30.4139C219.258 27.9897 218.437 25.0194 218.437 21.412H214.437C214.437 25.6446 215.408 29.3943 217.44 32.5701L220.809 30.4139ZM218.437 21.412C218.437 17.7631 219.26 14.7753 220.809 12.3541L217.44 10.1979C215.406 13.3767 214.437 17.1463 214.437 21.412H218.437ZM220.799 12.3699C222.393 9.92974 224.687 8.02186 227.77 6.66693L226.16 3.00507C222.448 4.6368 219.515 7.02226 217.45 10.1821L220.799 12.3699ZM227.779 6.6628C230.896 5.27359 234.73 4.54 239.341 4.54V0.539999C234.32 0.539999 229.903 1.33708 226.151 3.0092L227.779 6.6628ZM239.341 4.54C243.993 4.54 247.822 5.2747 250.895 6.65947L252.538 3.01253C248.817 1.33597 244.395 0.539999 239.341 0.539999V4.54ZM250.912 6.66693C253.992 8.02069 256.261 9.92422 257.816 12.3541L261.185 10.1979C259.156 7.02777 256.236 4.63797 252.522 3.00507L250.912 6.66693ZM257.826 12.3699C259.407 14.7889 260.245 17.7708 260.245 21.412H264.245C264.245 17.1385 263.253 13.3631 261.175 10.1821L257.826 12.3699ZM260.245 21.412C260.245 25.0117 259.409 27.9761 257.826 30.3981L261.175 32.5859C263.251 29.4079 264.245 25.6523 264.245 21.412H260.245ZM257.816 30.4139C256.258 32.8484 253.983 34.7734 250.895 36.1645L252.538 39.8115C256.245 38.1413 259.159 35.7356 261.185 32.5701L257.816 30.4139ZM250.912 36.1571C247.833 37.5102 243.998 38.228 239.341 38.228V42.228C244.39 42.228 248.805 41.4524 252.522 39.8189L250.912 36.1571ZM239.341 35.788C242.523 35.788 245.398 35.311 247.924 34.301L246.438 30.587C244.483 31.369 242.132 31.788 239.341 31.788V35.788ZM247.913 34.3051C250.521 33.2792 252.627 31.6827 254.144 29.4962L250.858 27.2158C249.836 28.688 248.396 29.8168 246.449 30.5829L247.913 34.3051ZM254.128 29.5185C255.731 27.2745 256.461 24.5254 256.461 21.412H252.461C252.461 23.8986 251.884 25.7788 250.873 27.1935L254.128 29.5185ZM256.461 21.412C256.461 18.2986 255.731 15.5495 254.128 13.3055L250.873 15.6305C251.884 17.0452 252.461 18.9254 252.461 21.412H256.461ZM254.144 13.3278C252.627 11.1413 250.521 9.5448 247.913 8.51887L246.449 12.2411C248.396 13.0072 249.836 14.136 250.858 15.6082L254.144 13.3278ZM247.95 8.53384C245.417 7.47844 242.532 6.98 239.341 6.98V10.98C242.123 10.98 244.465 11.4149 246.412 12.2262L247.95 8.53384ZM239.341 6.98C236.181 6.98 233.288 7.4802 230.697 8.52511L232.193 12.2349C234.231 11.4131 236.602 10.98 239.341 10.98V6.98ZM230.723 8.51486C228.084 9.5365 225.942 11.126 224.385 13.3055L227.64 15.6305C228.697 14.1514 230.177 13.0155 232.167 12.2451L230.723 8.51486ZM224.385 13.3055C222.782 15.5495 222.053 18.2986 222.053 21.412H226.053C226.053 18.9254 226.63 17.0452 227.64 15.6305L224.385 13.3055ZM222.053 21.412C222.053 24.5254 222.782 27.2745 224.385 29.5185L227.64 27.1935C226.63 25.7788 226.053 23.8986 226.053 21.412H222.053ZM224.385 29.5185C225.942 31.698 228.084 33.2875 230.723 34.3091L232.167 30.5789C230.177 29.8085 228.697 28.6726 227.64 27.1935L224.385 29.5185ZM230.723 34.3091C233.307 35.3093 236.19 35.788 239.341 35.788V31.788C236.593 31.788 234.212 31.3707 232.167 30.5789L230.723 34.3091ZM275.955 27.74H273.955V29.74H275.955V27.74ZM275.955 21.804V19.804H273.955V21.804H275.955ZM297.235 20.236L298.576 21.7202L298.589 21.7085L298.601 21.6965L297.235 20.236ZM297.235 11.22L295.895 12.7042V12.7042L297.235 11.22ZM276.851 9.652V7.652H274.851V9.652H276.851ZM276.851 39.5V41.5H278.851V39.5H276.851ZM269.403 39.5H267.403V41.5H269.403V39.5ZM269.403 3.268V1.268H267.403V3.268H269.403ZM297.515 3.996L296.982 5.92365L296.992 5.92645L297.515 3.996ZM302.163 6.236L300.942 7.81956L300.952 7.82785L300.963 7.836L302.163 6.236ZM305.299 10.1L303.493 10.9599L305.299 10.1ZM305.299 21.3L303.502 20.4231V20.4232L305.299 21.3ZM302.163 25.052L303.326 26.6795L303.334 26.6734L302.163 25.052ZM297.515 27.124L297.971 29.0714L297.986 29.0679L298 29.0643L297.515 27.124ZM277.955 27.74V21.804H273.955V27.74H277.955ZM275.955 23.804H292.531V19.804H275.955V23.804ZM292.531 23.804C294.867 23.804 296.96 23.1796 298.576 21.7202L295.895 18.7518C295.196 19.3831 294.152 19.804 292.531 19.804V23.804ZM298.601 21.6965C300.243 20.1605 300.971 18.093 300.971 15.756H296.971C296.971 17.227 296.542 18.1461 295.869 18.7755L298.601 21.6965ZM300.971 15.756C300.971 13.374 300.26 11.257 298.576 9.73579L295.895 12.7042C296.525 13.2736 296.971 14.1806 296.971 15.756H300.971ZM298.576 9.73579C296.96 8.27642 294.867 7.652 292.531 7.652V11.652C294.152 11.652 295.196 12.0729 295.895 12.7042L298.576 9.73579ZM292.531 7.652H276.851V11.652H292.531V7.652ZM274.851 9.652V39.5H278.851V9.652H274.851ZM276.851 37.5H269.403V41.5H276.851V37.5ZM271.403 39.5V3.268H267.403V39.5H271.403ZM269.403 5.268H291.859V1.268H269.403V5.268ZM291.859 5.268C293.714 5.268 295.418 5.49116 296.982 5.92362L298.048 2.06838C296.103 1.53018 294.036 1.268 291.859 1.268V5.268ZM296.992 5.92645C298.562 6.3517 299.867 6.99079 300.942 7.81956L303.385 4.65243C301.846 3.4652 300.052 2.61096 298.038 2.06555L296.992 5.92645ZM300.963 7.836C302.039 8.64323 302.881 9.67371 303.493 10.9599L307.105 9.24013C306.224 7.39028 304.975 5.84477 303.363 4.636L300.963 7.836ZM303.493 10.9599C304.083 12.1972 304.419 13.7735 304.419 15.756H308.419C308.419 13.3332 308.009 11.1388 307.105 9.24013L303.493 10.9599ZM304.419 15.756C304.419 17.6975 304.084 19.2294 303.502 20.4231L307.097 22.1768C308.008 20.3093 308.419 18.1452 308.419 15.756H304.419ZM303.502 20.4232C302.895 21.6662 302.062 22.6582 300.992 23.4306L303.334 26.6734C304.953 25.5045 306.21 23.9951 307.097 22.1768L303.502 20.4232ZM301.001 23.4245C299.926 24.1918 298.615 24.7875 297.03 25.1837L298 29.0643C299.999 28.5645 301.786 27.7789 303.326 26.6795L301.001 23.4245ZM297.059 25.1766C295.471 25.5485 293.74 25.74 291.859 25.74V29.74C294.011 29.74 296.05 29.5209 297.971 29.0714L297.059 25.1766ZM291.859 25.74H275.955V29.74H291.859V25.74ZM320.877 24.38V22.38H318.877V24.38H320.877ZM320.877 33.284H318.877V35.284H320.877V33.284ZM348.821 33.284H350.821V31.284H348.821V33.284ZM348.821 39.5V41.5H350.821V39.5H348.821ZM313.429 39.5H311.429V41.5H313.429V39.5ZM313.429 3.268V1.268H311.429V3.268H313.429ZM348.765 3.268H350.765V1.268H348.765V3.268ZM348.765 9.484V11.484H350.765V9.484H348.765ZM320.877 9.484V7.484H318.877V9.484H320.877ZM320.877 18.5H318.877V20.5H320.877V18.5ZM343.725 18.5H345.725V16.5H343.725V18.5ZM343.725 24.38V26.38H345.725V24.38H343.725ZM318.877 24.38V33.284H322.877V24.38H318.877ZM320.877 35.284H348.821V31.284H320.877V35.284ZM346.821 33.284V39.5H350.821V33.284H346.821ZM348.821 37.5H313.429V41.5H348.821V37.5ZM315.429 39.5V3.268H311.429V39.5H315.429ZM313.429 5.268H348.765V1.268H313.429V5.268ZM346.765 3.268V9.484H350.765V3.268H346.765ZM348.765 7.484H320.877V11.484H348.765V7.484ZM318.877 9.484V18.5H322.877V9.484H318.877ZM320.877 20.5H343.725V16.5H320.877V20.5ZM341.725 18.5V24.38H345.725V18.5H341.725ZM343.725 22.38H320.877V26.38H343.725V22.38ZM356.468 39.5H354.468V41.5H356.468V39.5ZM356.468 3.268V1.268H354.468V3.268H356.468ZM388.332 4.444L387.619 6.31244L387.639 6.32018L387.66 6.32748L388.332 4.444ZM393.204 8.028L391.569 9.17991L391.576 9.18879L391.582 9.1976L393.204 8.028ZM394.044 18.612L392.255 17.7176L394.044 18.612ZM391.524 21.524L390.389 19.8776L390.375 19.8869L390.362 19.8965L391.524 21.524ZM387.884 23.26L388.406 25.1907L388.43 25.1842L388.454 25.1771L387.884 23.26ZM383.46 23.988L382.468 25.7245L382.996 26.0263L383.603 25.9829L383.46 23.988ZM382.676 23.54L382.705 21.5402L381.684 25.2765L382.676 23.54ZM389.116 24.212L388.641 26.1548L388.662 26.1598L388.682 26.1644L389.116 24.212ZM392.868 26.34L391.296 27.5756L391.32 27.6068L391.346 27.6369L392.868 26.34ZM394.156 39.5V41.5H396.156V39.5H394.156ZM386.708 39.5H384.708V41.5H386.708V39.5ZM385.98 28.188L384.28 29.2407L384.291 29.2595L384.303 29.278L385.98 28.188ZM383.348 26.564L382.877 28.5077L382.89 28.5108L383.348 26.564ZM363.916 26.116V24.116H361.916V26.116H363.916ZM363.916 39.5V41.5H365.916V39.5H363.916ZM363.916 20.292H361.916V22.292H363.916V20.292ZM385.812 18.78L384.474 17.2934L384.462 17.3047L384.449 17.3162L385.812 18.78ZM385.812 10.94L384.569 12.507L384.582 12.5172L384.595 12.5272L385.812 10.94ZM363.916 9.652V7.652H361.916V9.652H363.916ZM358.468 39.5V3.268H354.468V39.5H358.468ZM356.468 5.268H381.052V1.268H356.468V5.268ZM381.052 5.268C383.672 5.268 385.846 5.6356 387.619 6.31244L389.046 2.57556C386.712 1.6844 384.032 1.268 381.052 1.268V5.268ZM387.66 6.32748C389.404 6.9506 390.674 7.90971 391.569 9.17991L394.839 6.87609C393.419 4.86095 391.442 3.43073 389.005 2.56051L387.66 6.32748ZM391.582 9.1976C392.432 10.3771 392.94 12.0062 392.94 14.244H396.94C396.94 11.4044 396.291 8.88952 394.827 6.85839L391.582 9.1976ZM392.94 14.244C392.94 15.7367 392.68 16.8684 392.255 17.7176L395.833 19.5064C396.603 17.9663 396.94 16.1859 396.94 14.244H392.94ZM392.255 17.7176C391.806 18.6154 391.189 19.3255 390.389 19.8776L392.66 23.1704C394.025 22.2291 395.087 20.9979 395.833 19.5064L392.255 17.7176ZM390.362 19.8965C389.517 20.4999 388.509 20.9877 387.314 21.3429L388.454 25.1771C390.022 24.7109 391.441 24.0414 392.687 23.1515L390.362 19.8965ZM387.362 21.3293C386.117 21.666 384.77 21.8894 383.318 21.9931L383.603 25.9829C385.287 25.8626 386.889 25.6007 388.406 25.1907L387.362 21.3293ZM384.453 22.2515L383.669 21.8035L381.684 25.2765L382.468 25.7245L384.453 22.2515ZM382.648 25.5398C385.179 25.576 387.161 25.793 388.641 26.1548L389.591 22.2692C387.711 21.8096 385.4 21.5787 382.705 21.5402L382.648 25.5398ZM388.682 26.1644C390.046 26.4674 390.835 26.989 391.296 27.5756L394.441 25.1044C393.259 23.6003 391.546 22.7032 389.55 22.2596L388.682 26.1644ZM391.346 27.6369C391.771 28.1356 392.156 29.0969 392.156 30.876H396.156C396.156 28.6231 395.683 26.5604 394.391 25.0431L391.346 27.6369ZM392.156 30.876V39.5H396.156V30.876H392.156ZM394.156 37.5H386.708V41.5H394.156V37.5ZM388.708 39.5V31.38H384.708V39.5H388.708ZM388.708 31.38C388.708 29.8087 388.44 28.3021 387.657 27.098L384.303 29.278C384.491 29.5673 384.708 30.1887 384.708 31.38H388.708ZM387.681 27.1353C386.818 25.7412 385.376 24.9864 383.806 24.6172L382.89 28.5108C383.859 28.7389 384.172 29.0668 384.28 29.2407L387.681 27.1353ZM383.819 24.6203C382.354 24.265 380.373 24.116 377.972 24.116V28.116C380.276 28.116 381.879 28.2657 382.877 28.5077L383.819 24.6203ZM377.972 24.116H363.916V28.116H377.972V24.116ZM361.916 26.116V39.5H365.916V26.116H361.916ZM363.916 37.5H356.468V41.5H363.916V37.5ZM363.916 22.292H381.052V18.292H363.916V22.292ZM381.052 22.292C383.44 22.292 385.593 21.7165 387.175 20.2438L384.449 17.3162C383.866 17.8595 382.846 18.292 381.052 18.292V22.292ZM387.15 20.2666C388.753 18.8244 389.492 16.8887 389.492 14.692H385.492C385.492 15.93 385.112 16.7196 384.474 17.2934L387.15 20.2666ZM389.492 14.692C389.492 12.5426 388.728 10.655 387.029 9.35279L384.595 12.5272C385.137 12.9424 385.492 13.5561 385.492 14.692H389.492ZM387.055 9.373C385.478 8.12214 383.373 7.652 381.052 7.652V11.652C382.912 11.652 383.981 12.0405 384.569 12.507L387.055 9.373ZM381.052 7.652H363.916V11.652H381.052V7.652ZM361.916 9.652V20.292H365.916V9.652H361.916Z" fill="#CBCBCB" mask="url(#path-1-outside-1_4576_53)"/>
</svg>
