<svg width="126" height="32" viewBox="0 0 126 32" fill="none" xmlns="http://www.w3.org/2000/svg">
<path d="M5.44092 2L5.81713 12.6611L8.55622 2.35101L6.55066 12.8285L11.5153 3.38644L7.22855 13.155L14.1698 5.05436L7.8168 13.6241L16.3866 7.27114L8.28591 14.2124L18.0545 9.92564L8.61238 14.8903L19.0899 12.8847L8.77978 15.6238L19.4409 16L8.77978 16.3762L19.0899 19.1153L8.61238 17.1097L18.0545 22.0744L8.28591 17.7876L16.3866 24.7289L7.8168 18.3759L14.1698 26.9456L7.22855 18.845L11.5153 28.6136L6.55066 19.1715L8.55622 29.649L5.81713 19.3389L5.44092 30L5.06471 19.3389L2.32562 29.649L4.33117 19.1715L-0.633446 28.6136L3.65329 18.845L-3.28794 26.9456L3.06504 18.3759L-5.50472 24.7289L2.59593 17.7876L-7.17264 22.0744L2.26946 17.1097L-8.20807 19.1153L2.10206 16.3762L-8.55908 16L2.10206 15.6238L-8.20807 12.8847L2.26946 14.8903L-7.17264 9.92564L2.59593 14.2124L-5.50472 7.27114L3.06504 13.6241L-3.28794 5.05436L3.65329 13.155L-0.633446 3.38644L4.33117 12.8285L2.32562 2.35101L5.06471 12.6611L5.44092 2Z" fill="#CBCBCB"/>
<path d="M29.2595 20.8807C28.4378 20.8807 27.6845 20.6607 26.9999 20.2207C26.3289 19.7674 25.7947 19.154 25.3975 18.3807C25.0003 17.594 24.8018 16.7007 24.8018 15.7007C24.8018 14.7007 24.9935 13.8073 25.377 13.0207C25.7605 12.234 26.2876 11.614 26.9589 11.1607C27.6298 10.7074 28.3968 10.4807 29.2595 10.4807C30.0265 10.4807 30.6496 10.6207 31.1288 10.9007C31.622 11.1673 31.9987 11.5407 32.2588 12.0207C32.5189 12.5007 32.697 13.054 32.7931 13.6807C32.9024 14.3073 32.9571 14.9807 32.9571 15.7007C32.9571 16.2073 32.9024 16.7607 32.7931 17.3607C32.6833 17.9473 32.4916 18.514 32.2178 19.0607C31.9577 19.594 31.5879 20.034 31.1083 20.3807C30.6291 20.714 30.0129 20.8807 29.2595 20.8807ZM29.6704 19.3607C30.369 19.3607 30.9439 19.194 31.3961 18.8607C31.8616 18.5273 32.2041 18.0873 32.4232 17.5407C32.6423 16.9807 32.7517 16.3673 32.7517 15.7007C32.7517 14.9673 32.6355 14.3273 32.4027 13.7807C32.1836 13.2207 31.8411 12.7874 31.3756 12.4807C30.9234 12.1607 30.3553 12.0007 29.6704 12.0007C28.6433 12.0007 27.8489 12.354 27.2873 13.0607C26.7261 13.754 26.4451 14.634 26.4451 15.7007C26.4451 16.4073 26.5822 17.0407 26.856 17.6007C27.1438 18.1473 27.5273 18.5807 28.0065 18.9007C28.4993 19.2073 29.0541 19.3607 29.6704 19.3607ZM32.7517 6.68066H34.3954V20.6807H32.8956C32.8683 20.3873 32.8341 20.0407 32.7931 19.6407C32.7657 19.2407 32.7517 18.9207 32.7517 18.6807V6.68066Z" fill="#CBCBCB"/>
<path d="M41.8316 20.8807C40.9549 20.8807 40.1332 20.674 39.3662 20.2607C38.5996 19.8473 37.9761 19.254 37.4969 18.4807C37.0314 17.694 36.7986 16.7674 36.7986 15.7007C36.7986 14.634 37.0314 13.714 37.4969 12.9407C37.9761 12.154 38.5996 11.5474 39.3662 11.1207C40.1332 10.694 40.9549 10.4807 41.8316 10.4807C42.708 10.4807 43.5228 10.694 44.2762 11.1207C45.0432 11.5474 45.6594 12.154 46.125 12.9407C46.5905 13.714 46.8233 14.634 46.8233 15.7007C46.8233 16.7674 46.5905 17.694 46.125 18.4807C45.6594 19.254 45.0432 19.8473 44.2762 20.2607C43.5228 20.674 42.708 20.8807 41.8316 20.8807ZM41.8316 19.3807C42.4065 19.3807 42.9476 19.2407 43.4545 18.9607C43.961 18.6807 44.3719 18.2673 44.687 17.7207C45.0155 17.1607 45.1799 16.4873 45.1799 15.7007C45.1799 14.914 45.0155 14.2473 44.687 13.7007C44.3719 13.1407 43.961 12.714 43.4545 12.4207C42.9476 12.1273 42.4065 11.9807 41.8316 11.9807C41.2564 11.9807 40.7085 12.1273 40.1879 12.4207C39.6813 12.7007 39.2637 13.1207 38.9349 13.6807C38.6064 14.2273 38.442 14.9007 38.442 15.7007C38.442 16.4873 38.5996 17.1607 38.9143 17.7207C39.2432 18.2673 39.6677 18.6807 40.1879 18.9607C40.7085 19.2407 41.2564 19.3807 41.8316 19.3807Z" fill="#CBCBCB"/>
<path d="M48.9091 10.6807H50.5525V20.6807H48.9091V10.6807ZM53.8393 12.1807C53.141 12.1807 52.552 12.354 52.0725 12.7007C51.607 13.034 51.2371 13.4473 50.9634 13.9407C50.7029 14.4207 50.532 14.8873 50.4496 15.3407L50.4291 14.1807C50.4291 14.0607 50.4565 13.8607 50.5115 13.5807C50.5662 13.3007 50.6687 12.9873 50.8195 12.6407C50.9702 12.2807 51.1688 11.9407 51.4152 11.6207C51.6753 11.2873 52.0041 11.014 52.4013 10.8007C52.7985 10.5874 53.2777 10.4807 53.8393 10.4807V12.1807Z" fill="#CBCBCB"/>
<path d="M59.5724 20.8807C58.7643 20.8807 58.0179 20.6607 57.3332 20.2207C56.6623 19.7674 56.1212 19.154 55.7104 18.3807C55.3132 17.594 55.1146 16.7007 55.1146 15.7007C55.1146 14.7007 55.32 13.8073 55.7309 13.0207C56.1417 12.234 56.6965 11.614 57.3948 11.1607C58.1071 10.7074 58.9014 10.4807 59.7778 10.4807C60.7365 10.4807 61.4622 10.7207 61.9554 11.2007C62.4619 11.6674 62.8044 12.294 62.9825 13.0807C63.1743 13.8673 63.27 14.7407 63.27 15.7007C63.27 16.2073 63.2153 16.7607 63.1059 17.3607C62.9962 17.9473 62.8044 18.514 62.5307 19.0607C62.2702 19.594 61.9007 20.034 61.4212 20.3807C60.942 20.714 60.3257 20.8807 59.5724 20.8807ZM59.9832 19.3607C60.6815 19.3607 61.2568 19.194 61.709 18.8607C62.1745 18.5273 62.517 18.0873 62.7361 17.5407C62.9552 16.9807 63.0645 16.3673 63.0645 15.7007C63.0645 14.9673 62.9483 14.3273 62.7156 13.7807C62.4961 13.2207 62.154 12.7874 61.6881 12.4807C61.2363 12.1607 60.6678 12.0007 59.9832 12.0007C58.9561 12.0007 58.1618 12.354 57.6002 13.0607C57.0386 13.754 56.758 14.634 56.758 15.7007C56.758 16.4073 56.895 17.0407 57.1688 17.6007C57.4563 18.1473 57.8398 18.5807 58.3193 18.9007C58.8122 19.2073 59.3669 19.3607 59.9832 19.3607ZM63.0645 10.6807H64.7079V20.6807H63.2084C63.2084 20.6807 63.1948 20.5607 63.1674 20.3207C63.1538 20.0807 63.1333 19.8007 63.1059 19.4807C63.0782 19.1607 63.0645 18.894 63.0645 18.6807V10.6807Z" fill="#CBCBCB"/>
<path d="M71.2681 20.8807C70.4464 20.8807 69.6931 20.6607 69.0085 20.2207C68.3375 19.7674 67.8033 19.154 67.4061 18.3807C67.0089 17.594 66.8103 16.7007 66.8103 15.7007C66.8103 14.7007 67.0021 13.8073 67.3856 13.0207C67.7691 12.234 68.2961 11.614 68.9674 11.1607C69.6384 10.7074 70.4054 10.4807 71.2681 10.4807C72.0351 10.4807 72.6582 10.6207 73.1374 10.9007C73.6306 11.1673 74.0073 11.5407 74.2674 12.0207C74.5275 12.5007 74.7056 13.054 74.8016 13.6807C74.911 14.3073 74.966 14.9807 74.966 15.7007C74.966 16.2073 74.911 16.7607 74.8016 17.3607C74.6919 17.9473 74.5002 18.514 74.2264 19.0607C73.9663 19.594 73.5965 20.034 73.1169 20.3807C72.6377 20.714 72.0214 20.8807 71.2681 20.8807ZM71.6789 19.3607C72.3776 19.3607 72.9528 19.194 73.4047 18.8607C73.8702 18.5273 74.2127 18.0873 74.4318 17.5407C74.6509 16.9807 74.7603 16.3673 74.7603 15.7007C74.7603 14.9673 74.6441 14.3273 74.4113 13.7807C74.1922 13.2207 73.8497 12.7874 73.3842 12.4807C72.932 12.1607 72.3639 12.0007 71.6789 12.0007C70.6518 12.0007 69.8575 12.354 69.2959 13.0607C68.7347 13.754 68.4537 14.634 68.4537 15.7007C68.4537 16.4073 68.5908 17.0407 68.8646 17.6007C69.1524 18.1473 69.5359 18.5807 70.0151 18.9007C70.5079 19.2073 71.0627 19.3607 71.6789 19.3607ZM74.7603 6.68066H76.404V20.6807H74.9042C74.8768 20.3873 74.8427 20.0407 74.8016 19.6407C74.7743 19.2407 74.7603 18.9207 74.7603 18.6807V6.68066Z" fill="#CBCBCB"/>
<path d="M86.6546 17.4607H88.1951C88.0857 18.114 87.8393 18.7007 87.4558 19.2207C87.0859 19.7274 86.5927 20.134 85.9764 20.4407C85.3739 20.734 84.6756 20.8807 83.8812 20.8807C82.9225 20.8807 82.0598 20.6607 81.2928 20.2207C80.5257 19.7674 79.9163 19.154 79.4645 18.3807C79.0263 17.594 78.8072 16.7007 78.8072 15.7007C78.8072 14.7007 79.0194 13.8073 79.444 13.0207C79.8821 12.234 80.4779 11.614 81.2312 11.1607C81.9842 10.7074 82.8336 10.4807 83.7783 10.4807C84.7781 10.4807 85.6206 10.7007 86.3053 11.1407C87.0036 11.5674 87.5173 12.2007 87.8461 13.0407C88.1882 13.8673 88.3253 14.8873 88.257 16.1007H80.4506C80.5189 16.754 80.7038 17.3273 81.0053 17.8207C81.3064 18.314 81.7036 18.7007 82.1968 18.9807C82.6897 19.2473 83.2513 19.3807 83.8812 19.3807C84.5795 19.3807 85.1684 19.2073 85.648 18.8607C86.1409 18.5007 86.4765 18.034 86.6546 17.4607ZM83.8402 11.9807C82.9908 11.9807 82.2789 12.2207 81.7036 12.7007C81.1283 13.1807 80.7448 13.834 80.5531 14.6607H86.5722C86.5175 13.7807 86.2229 13.114 85.689 12.6607C85.1684 12.2073 84.5522 11.9807 83.8402 11.9807Z" fill="#CBCBCB"/>
<path d="M89.8831 17.4607H91.403C91.444 18.034 91.6631 18.5007 92.0603 18.8607C92.4712 19.2207 93.0601 19.4007 93.8271 19.4007C94.2926 19.4007 94.6556 19.3407 94.9161 19.2207C95.1898 19.1007 95.3884 18.9407 95.5118 18.7407C95.6349 18.5273 95.6964 18.294 95.6964 18.0407C95.6964 17.734 95.6144 17.494 95.45 17.3207C95.2992 17.134 95.087 16.9807 94.8132 16.8607C94.5531 16.7407 94.2516 16.6273 93.9095 16.5207C93.5123 16.374 93.1015 16.2207 92.6766 16.0607C92.2657 15.8873 91.8754 15.6874 91.5059 15.4607C91.1498 15.2207 90.862 14.934 90.6429 14.6007C90.4238 14.254 90.3144 13.8407 90.3144 13.3607C90.3144 12.9607 90.3964 12.5874 90.5608 12.2407C90.7252 11.8807 90.958 11.574 91.2591 11.3207C91.5743 11.054 91.9373 10.8473 92.3481 10.7007C92.7726 10.554 93.2382 10.4807 93.7451 10.4807C94.4297 10.4807 95.0049 10.614 95.4705 10.8807C95.95 11.1473 96.3127 11.5273 96.5594 12.0207C96.8195 12.5007 96.9566 13.0607 96.9703 13.7007H95.5528C95.4568 13.1007 95.2582 12.6674 94.9571 12.4007C94.6693 12.1207 94.2516 11.9807 93.704 11.9807C93.1425 11.9807 92.7111 12.1007 92.4096 12.3407C92.1085 12.5807 91.9578 12.9007 91.9578 13.3007C91.9578 13.594 92.0672 13.8407 92.2862 14.0407C92.5057 14.2273 92.7863 14.4007 93.1288 14.5607C93.4846 14.7074 93.8613 14.8607 94.2584 15.0207C94.6556 15.1807 95.0391 15.3407 95.4089 15.5007C95.7788 15.6607 96.1072 15.8473 96.395 16.0607C96.6825 16.274 96.9084 16.5407 97.0728 16.8607C97.2509 17.1673 97.3401 17.554 97.3401 18.0207C97.3401 18.5807 97.2031 19.0807 96.9293 19.5207C96.6688 19.9473 96.2785 20.2807 95.7583 20.5207C95.2514 20.7607 94.6283 20.8807 93.8886 20.8807C93.2177 20.8807 92.6424 20.8007 92.1632 20.6407C91.6977 20.4673 91.3073 20.2473 90.9922 19.9807C90.6774 19.7007 90.4306 19.4073 90.2525 19.1007C90.0885 18.794 89.9788 18.494 89.9241 18.2007C89.869 17.9073 89.8554 17.6607 89.8831 17.4607Z" fill="#CBCBCB"/>
<path d="M100.481 6.68066C101.031 6.68066 101.477 7.11497 101.477 7.65068C101.477 8.18639 101.031 8.62067 100.481 8.62067H100.337C99.7872 8.62067 99.3411 8.18639 99.3411 7.65068C99.3411 7.11497 99.7872 6.68066 100.337 6.68066H100.481ZM99.5875 10.6807H101.231V20.6807H99.5875V10.6807Z" fill="#CBCBCB"/>
<path d="M107.715 19.1007C106.989 19.1007 106.297 18.934 105.64 18.6007C104.996 18.254 104.469 17.7607 104.058 17.1207C103.661 16.4807 103.462 15.714 103.462 14.8207C103.462 13.9273 103.661 13.1607 104.058 12.5207C104.455 11.8673 104.976 11.3673 105.62 11.0207C106.263 10.6607 106.962 10.4807 107.715 10.4807C107.948 10.4807 108.167 10.5007 108.372 10.5407C108.592 10.5674 108.797 10.614 108.989 10.6807H113.159V12.4007C112.57 12.4007 111.981 12.294 111.392 12.0807C110.817 11.8673 110.324 11.6474 109.913 11.4207L109.831 11.3407C110.31 11.594 110.7 11.894 111.002 12.2407C111.317 12.5874 111.549 12.9807 111.7 13.4207C111.865 13.8473 111.947 14.314 111.947 14.8207C111.947 15.714 111.748 16.4807 111.351 17.1207C110.967 17.7607 110.454 18.254 109.81 18.6007C109.167 18.934 108.468 19.1007 107.715 19.1007ZM110.735 24.6807V24.2407C110.735 23.534 110.543 23.0207 110.159 22.7007C109.79 22.3807 109.228 22.2207 108.475 22.2207H106.421C105.969 22.2207 105.572 22.1807 105.229 22.1007C104.9 22.034 104.627 21.9273 104.408 21.7807C104.188 21.634 104.024 21.454 103.914 21.2407C103.805 21.0273 103.75 20.7873 103.75 20.5207C103.75 20.014 103.908 19.634 104.223 19.3807C104.538 19.114 104.928 18.9473 105.394 18.8807C105.859 18.814 106.304 18.814 106.729 18.8807L107.715 19.1007C106.976 19.1407 106.4 19.214 105.989 19.3207C105.592 19.4273 105.394 19.654 105.394 20.0007C105.394 20.2007 105.469 20.3673 105.62 20.5007C105.784 20.6207 106.024 20.6807 106.338 20.6807H108.475C109.187 20.6807 109.838 20.774 110.427 20.9607C111.016 21.1607 111.488 21.4873 111.844 21.9407C112.2 22.4073 112.378 23.0407 112.378 23.8407V24.6807H110.735ZM107.715 17.6007C108.167 17.6007 108.585 17.494 108.968 17.2807C109.365 17.0673 109.687 16.754 109.933 16.3407C110.18 15.9273 110.303 15.4207 110.303 14.8207C110.303 14.2207 110.18 13.714 109.933 13.3007C109.701 12.874 109.386 12.554 108.989 12.3407C108.592 12.114 108.167 12.0007 107.715 12.0007C107.263 12.0007 106.838 12.114 106.441 12.3407C106.044 12.554 105.722 12.8673 105.476 13.2807C105.229 13.694 105.106 14.2073 105.106 14.8207C105.106 15.4207 105.229 15.9273 105.476 16.3407C105.722 16.754 106.044 17.0673 106.441 17.2807C106.838 17.494 107.263 17.6007 107.715 17.6007Z" fill="#CBCBCB"/>
<path d="M115.092 10.6807H116.735V20.6807H115.092V10.6807ZM120.269 10.4807C120.816 10.4807 121.309 10.5607 121.748 10.7207C122.186 10.8807 122.556 11.114 122.857 11.4207C123.158 11.7274 123.391 12.1007 123.555 12.5407C123.72 12.9673 123.802 13.454 123.802 14.0007V20.6807H122.158V14.4007C122.158 13.6274 121.973 13.0473 121.604 12.6607C121.234 12.274 120.679 12.0807 119.94 12.0807C119.378 12.0807 118.858 12.2207 118.378 12.5007C117.899 12.7807 117.502 13.1673 117.187 13.6607C116.886 14.1407 116.701 14.7007 116.632 15.3407L116.612 14.1807C116.68 13.6207 116.817 13.114 117.022 12.6607C117.242 12.2073 117.509 11.8207 117.824 11.5007C118.152 11.1673 118.522 10.914 118.933 10.7407C119.358 10.5674 119.803 10.4807 120.269 10.4807Z" fill="#CBCBCB"/>
</svg>
