<svg width="166" height="43" viewBox="0 0 166 43" fill="none" xmlns="http://www.w3.org/2000/svg">
<mask id="path-1-outside-1_4576_44" maskUnits="userSpaceOnUse" x="-198" y="0.5" width="365" height="42" fill="black">
<rect fill="white" x="-198" y="0.5" width="365" height="42"/>
<path d="M-179.592 39.5L-194.88 3.268H-186.648L-173.712 35.356L-176.12 35.412L-163.8 3.268H-155.232L-142.912 35.412L-145.32 35.356L-132.384 3.268H-124.32L-139.44 39.5H-148.568L-160.664 8.084H-158.312L-170.464 39.5H-179.592ZM-111.451 24.38V33.284H-83.5069V39.5H-118.899V3.268H-83.5629V9.484H-111.451V18.5H-88.6029V24.38H-111.451ZM-75.8599 39.5V3.268H-54.9719C-50.1185 3.268 -46.4412 4.08933 -43.9399 5.732C-41.4012 7.33733 -40.1319 9.74533 -40.1319 12.956C-40.1319 15.0093 -40.6359 16.6333 -41.6439 17.828C-42.6519 18.9853 -44.0892 19.844 -45.9559 20.404C-47.7852 20.964 -49.9505 21.3187 -52.4519 21.468L-52.2279 21.076C-50.3985 21.1133 -48.6812 21.244 -47.0759 21.468C-45.4332 21.692 -43.9959 22.1027 -42.7639 22.7C-41.5319 23.2973 -40.5612 24.1373 -39.8519 25.22C-39.1425 26.2653 -38.7879 27.6467 -38.7879 29.364C-38.7879 31.604 -39.3852 33.4707 -40.5799 34.964C-41.7745 36.42 -43.4359 37.5213 -45.5639 38.268C-47.6919 39.0147 -50.1559 39.4253 -52.9559 39.5H-75.8599ZM-68.4119 33.34H-53.7399C-51.3879 33.34 -49.5772 32.9667 -48.3079 32.22C-47.0385 31.436 -46.4039 30.204 -46.4039 28.524C-46.4039 27.292 -46.7772 26.396 -47.5239 25.836C-48.2705 25.276 -49.2599 24.94 -50.4919 24.828C-51.7239 24.6787 -53.0492 24.604 -54.4679 24.604H-68.4119V33.34ZM-68.4119 18.612H-55.2519C-52.8999 18.612 -51.0892 18.276 -49.8199 17.604C-48.5505 16.8947 -47.9159 15.7 -47.9159 14.02C-47.9159 12.34 -48.5505 11.164 -49.8199 10.492C-51.0892 9.78267 -52.7692 9.428 -54.8599 9.428H-68.4119V18.612ZM3.17144 3.268V9.484H-24.7166V19.228H-1.86856V25.052H-24.7166V39.5H-32.1646V3.268H3.17144ZM16.7913 3.268V33.284H40.8713V39.5H9.34325V3.268H16.7913ZM67.6533 40.228C62.8373 40.228 58.7119 39.4813 55.2773 37.988C51.8799 36.4573 49.2666 34.292 47.4373 31.492C45.6453 28.692 44.7493 25.332 44.7493 21.412C44.7493 17.4547 45.6453 14.076 47.4373 11.276C49.2666 8.476 51.8799 6.32933 55.2773 4.836C58.7119 3.30533 62.8373 2.54 67.6533 2.54C72.5066 2.54 76.6319 3.30533 80.0293 4.836C83.4266 6.32933 86.0213 8.476 87.8133 11.276C89.6426 14.076 90.5573 17.4547 90.5573 21.412C90.5573 25.332 89.6426 28.692 87.8133 31.492C86.0213 34.292 83.4266 36.4573 80.0293 37.988C76.6319 39.4813 72.5066 40.228 67.6533 40.228ZM67.6533 33.788C70.6399 33.788 73.2533 33.34 75.4933 32.444C77.7706 31.548 79.5439 30.1853 80.8133 28.356C82.1199 26.5267 82.7733 24.212 82.7733 21.412C82.7733 18.612 82.1199 16.2973 80.8133 14.468C79.5439 12.6387 77.7706 11.276 75.4933 10.38C73.2533 9.44667 70.6399 8.98 67.6533 8.98C64.7039 8.98 62.0719 9.44667 59.7573 10.38C57.4426 11.276 55.6319 12.6387 54.3253 14.468C53.0186 16.2973 52.3653 18.612 52.3653 21.412C52.3653 24.212 53.0186 26.5267 54.3253 28.356C55.6319 30.1853 57.4426 31.548 59.7573 32.444C62.0719 33.34 64.7039 33.788 67.6533 33.788ZM107.736 39.5L92.4481 3.268H100.68L113.616 35.356L111.208 35.412L123.528 3.268H132.096L144.416 35.412L142.008 35.356L154.944 3.268H163.008L147.888 39.5H138.76L126.664 8.084H129.016L116.864 39.5H107.736Z"/>
</mask>
<path d="M-179.592 39.5L-181.435 40.2775L-180.919 41.5H-179.592V39.5ZM-194.88 3.268V1.268H-197.895L-196.723 4.04551L-194.88 3.268ZM-186.648 3.268L-184.793 2.5202L-185.298 1.268H-186.648V3.268ZM-173.712 35.356L-173.665 37.3555L-170.777 37.2883L-171.857 34.6082L-173.712 35.356ZM-176.12 35.412L-177.988 34.6962L-179.055 37.4808L-176.073 37.4115L-176.12 35.412ZM-163.8 3.268V1.268H-165.175L-165.668 2.55222L-163.8 3.268ZM-155.232 3.268L-153.364 2.55222L-153.857 1.268H-155.232V3.268ZM-142.912 35.412L-142.958 37.4115L-139.977 37.4808L-141.044 34.6962L-142.912 35.412ZM-145.32 35.356L-147.175 34.6082L-148.255 37.2883L-145.366 37.3555L-145.32 35.356ZM-132.384 3.268V1.268H-133.734L-134.239 2.5202L-132.384 3.268ZM-124.32 3.268L-122.474 4.03824L-121.318 1.268H-124.32V3.268ZM-139.44 39.5V41.5H-138.107L-137.594 40.2702L-139.44 39.5ZM-148.568 39.5L-150.434 40.2186L-149.941 41.5H-148.568V39.5ZM-160.664 8.084V6.084H-163.577L-162.53 8.80262L-160.664 8.084ZM-158.312 8.084L-156.447 8.80552L-155.394 6.084H-158.312V8.084ZM-170.464 39.5V41.5H-169.093L-168.599 40.2215L-170.464 39.5ZM-177.749 38.7225L-193.037 2.49048L-196.723 4.04551L-181.435 40.2775L-177.749 38.7225ZM-194.88 5.268H-186.648V1.268H-194.88V5.268ZM-188.503 4.0158L-175.567 36.1038L-171.857 34.6082L-184.793 2.5202L-188.503 4.0158ZM-173.758 33.3565L-176.166 33.4125L-176.073 37.4115L-173.665 37.3555L-173.758 33.3565ZM-174.252 36.1278L-161.932 3.98378L-165.668 2.55222L-177.988 34.6962L-174.252 36.1278ZM-163.8 5.268H-155.232V1.268H-163.8V5.268ZM-157.1 3.98378L-144.78 36.1278L-141.044 34.6962L-153.364 2.55222L-157.1 3.98378ZM-142.865 33.4125L-145.273 33.3565L-145.366 37.3555L-142.958 37.4115L-142.865 33.4125ZM-143.465 36.1038L-130.529 4.0158L-134.239 2.5202L-147.175 34.6082L-143.465 36.1038ZM-132.384 5.268H-124.32V1.268H-132.384V5.268ZM-126.166 2.49776L-141.286 38.7298L-137.594 40.2702L-122.474 4.03824L-126.166 2.49776ZM-139.44 37.5H-148.568V41.5H-139.44V37.5ZM-146.702 38.7814L-158.798 7.36537L-162.53 8.80262L-150.434 40.2186L-146.702 38.7814ZM-160.664 10.084H-158.312V6.084H-160.664V10.084ZM-160.177 7.36248L-172.329 38.7785L-168.599 40.2215L-156.447 8.80552L-160.177 7.36248ZM-170.464 37.5H-179.592V41.5H-170.464V37.5ZM-111.451 24.38V22.38H-113.451V24.38H-111.451ZM-111.451 33.284H-113.451V35.284H-111.451V33.284ZM-83.5069 33.284H-81.5069V31.284H-83.5069V33.284ZM-83.5069 39.5V41.5H-81.5069V39.5H-83.5069ZM-118.899 39.5H-120.899V41.5H-118.899V39.5ZM-118.899 3.268V1.268H-120.899V3.268H-118.899ZM-83.5629 3.268H-81.5629V1.268H-83.5629V3.268ZM-83.5629 9.484V11.484H-81.5629V9.484H-83.5629ZM-111.451 9.484V7.484H-113.451V9.484H-111.451ZM-111.451 18.5H-113.451V20.5H-111.451V18.5ZM-88.6029 18.5H-86.6029V16.5H-88.6029V18.5ZM-88.6029 24.38V26.38H-86.6029V24.38H-88.6029ZM-113.451 24.38V33.284H-109.451V24.38H-113.451ZM-111.451 35.284H-83.5069V31.284H-111.451V35.284ZM-85.5069 33.284V39.5H-81.5069V33.284H-85.5069ZM-83.5069 37.5H-118.899V41.5H-83.5069V37.5ZM-116.899 39.5V3.268H-120.899V39.5H-116.899ZM-118.899 5.268H-83.5629V1.268H-118.899V5.268ZM-85.5629 3.268V9.484H-81.5629V3.268H-85.5629ZM-83.5629 7.484H-111.451V11.484H-83.5629V7.484ZM-113.451 9.484V18.5H-109.451V9.484H-113.451ZM-111.451 20.5H-88.6029V16.5H-111.451V20.5ZM-90.6029 18.5V24.38H-86.6029V18.5H-90.6029ZM-88.6029 22.38H-111.451V26.38H-88.6029V22.38ZM-75.8599 39.5H-77.8599V41.5H-75.8599V39.5ZM-75.8599 3.268V1.268H-77.8599V3.268H-75.8599ZM-43.9399 5.732L-45.0377 7.40374L-45.0233 7.41319L-45.0088 7.42238L-43.9399 5.732ZM-41.6439 17.828L-40.1357 19.1416L-40.1254 19.1297L-40.1153 19.1177L-41.6439 17.828ZM-45.9559 20.404L-46.5306 18.4883L-46.5413 18.4916L-45.9559 20.404ZM-52.4519 21.468L-54.1884 20.4757L-56.022 23.6847L-52.3327 23.4644L-52.4519 21.468ZM-52.2279 21.076L-52.1871 19.0764L-53.3749 19.0522L-53.9644 20.0837L-52.2279 21.076ZM-47.0759 21.468L-47.3523 23.4488L-47.3461 23.4497L-47.0759 21.468ZM-39.8519 25.22L-41.5248 26.3161L-41.5159 26.3296L-41.5068 26.343L-39.8519 25.22ZM-40.5799 34.964L-39.0337 36.2326L-39.0259 36.2231L-39.0181 36.2134L-40.5799 34.964ZM-45.5639 38.268L-46.226 36.3808L-45.5639 38.268ZM-52.9559 39.5V41.5H-52.9292L-52.9026 41.4993L-52.9559 39.5ZM-68.4119 33.34H-70.4119V35.34H-68.4119V33.34ZM-48.3079 32.22L-47.2938 33.9439L-47.2752 33.9329L-47.2569 33.9216L-48.3079 32.22ZM-47.5239 25.836L-48.7239 27.436L-47.5239 25.836ZM-50.4919 24.828L-50.7325 26.8135L-50.7028 26.8171L-50.6729 26.8198L-50.4919 24.828ZM-68.4119 24.604V22.604H-70.4119V24.604H-68.4119ZM-68.4119 18.612H-70.4119V20.612H-68.4119V18.612ZM-49.8199 17.604L-48.8841 19.3716L-48.864 19.361L-48.8442 19.3499L-49.8199 17.604ZM-49.8199 10.492L-50.7955 12.2379L-50.7757 12.249L-50.7556 12.2596L-49.8199 10.492ZM-68.4119 9.428V7.428H-70.4119V9.428H-68.4119ZM-73.8599 39.5V3.268H-77.8599V39.5H-73.8599ZM-75.8599 5.268H-54.9719V1.268H-75.8599V5.268ZM-54.9719 5.268C-50.2885 5.268 -47.0679 6.0705 -45.0377 7.40374L-42.842 4.06026C-45.8145 2.10816 -49.9486 1.268 -54.9719 1.268V5.268ZM-45.0088 7.42238C-43.0962 8.63181 -42.1319 10.3744 -42.1319 12.956H-38.1319C-38.1319 9.11628 -39.7062 6.04285 -42.871 4.04161L-45.0088 7.42238ZM-42.1319 12.956C-42.1319 14.6873 -42.5534 15.8045 -43.1725 16.5383L-40.1153 19.1177C-38.7184 17.4622 -38.1319 15.3314 -38.1319 12.956H-42.1319ZM-43.152 16.5144C-43.8531 17.3193 -44.9289 18.0079 -46.5306 18.4883L-45.3812 22.3197C-43.2495 21.6801 -41.4507 20.6513 -40.1357 19.1416L-43.152 16.5144ZM-46.5413 18.4916C-48.1808 18.9935 -50.1822 19.3289 -52.5711 19.4716L-52.3327 23.4644C-49.7189 23.3084 -47.3896 22.9345 -45.3705 22.3164L-46.5413 18.4916ZM-50.7154 22.4603L-50.4914 22.0683L-53.9644 20.0837L-54.1884 20.4757L-50.7154 22.4603ZM-52.2687 23.0756C-50.5083 23.1115 -48.8703 23.237 -47.3523 23.4488L-46.7995 19.4872C-48.4921 19.251 -50.2888 19.1152 -52.1871 19.0764L-52.2687 23.0756ZM-47.3461 23.4497C-45.87 23.6509 -44.6434 24.0114 -43.6364 24.4996L-41.8913 20.9004C-43.3484 20.1939 -44.9964 19.733 -46.8056 19.4863L-47.3461 23.4497ZM-43.6364 24.4996C-42.7103 24.9486 -42.0243 25.5537 -41.5248 26.3161L-38.179 24.1239C-39.0981 22.721 -40.3534 21.646 -41.8913 20.9004L-43.6364 24.4996ZM-41.5068 26.343C-41.09 26.9573 -40.7879 27.9067 -40.7879 29.364H-36.7879C-36.7879 27.3866 -37.1951 25.5734 -38.1969 24.097L-41.5068 26.343ZM-40.7879 29.364C-40.7879 31.2311 -41.2776 32.6345 -42.1416 33.7146L-39.0181 36.2134C-37.4929 34.3068 -36.7879 31.9769 -36.7879 29.364H-40.7879ZM-42.126 33.6954C-43.0461 34.8167 -44.3751 35.7313 -46.226 36.3808L-44.9017 40.1552C-42.4966 39.3113 -40.503 38.0233 -39.0337 36.2326L-42.126 33.6954ZM-46.226 36.3808C-48.1174 37.0444 -50.3686 37.4303 -53.0092 37.5007L-52.9026 41.4993C-49.9431 41.4204 -47.2663 40.9849 -44.9017 40.1552L-46.226 36.3808ZM-52.9559 37.5H-75.8599V41.5H-52.9559V37.5ZM-68.4119 35.34H-53.7399V31.34H-68.4119V35.34ZM-53.7399 35.34C-51.2238 35.34 -49.0023 34.9488 -47.2938 33.9439L-49.3219 30.4961C-50.1521 30.9845 -51.5519 31.34 -53.7399 31.34V35.34ZM-47.2569 33.9216C-45.3143 32.7218 -44.4039 30.7934 -44.4039 28.524H-48.4039C-48.4039 29.6145 -48.7627 30.1502 -49.3589 30.5184L-47.2569 33.9216ZM-44.4039 28.524C-44.4039 26.8817 -44.9208 25.2883 -46.3239 24.236L-48.7239 27.436C-48.6336 27.5037 -48.4039 27.7023 -48.4039 28.524H-44.4039ZM-46.3239 24.236C-47.4491 23.3921 -48.8266 22.9711 -50.3108 22.8362L-50.6729 26.8198C-49.6932 26.9089 -49.092 27.1599 -48.7239 27.436L-46.3239 24.236ZM-50.2512 22.8425C-51.5734 22.6823 -52.9799 22.604 -54.4679 22.604V26.604C-53.1185 26.604 -51.8743 26.6751 -50.7325 26.8135L-50.2512 22.8425ZM-54.4679 22.604H-68.4119V26.604H-54.4679V22.604ZM-70.4119 24.604V33.34H-66.4119V24.604H-70.4119ZM-68.4119 20.612H-55.2519V16.612H-68.4119V20.612ZM-55.2519 20.612C-52.7582 20.612 -50.5697 20.264 -48.8841 19.3716L-50.7556 15.8364C-51.6087 16.288 -53.0415 16.612 -55.2519 16.612V20.612ZM-48.8442 19.3499C-46.8325 18.2257 -45.9159 16.2892 -45.9159 14.02H-49.9159C-49.9159 15.1108 -50.2686 15.5637 -50.7955 15.8581L-48.8442 19.3499ZM-45.9159 14.02C-45.9159 11.7513 -46.8357 9.80888 -48.8841 8.72442L-50.7556 12.2596C-50.2654 12.5191 -49.9159 12.9287 -49.9159 14.02H-45.9159ZM-48.8442 8.74611C-50.5141 7.81298 -52.5679 7.428 -54.8599 7.428V11.428C-52.9705 11.428 -51.6644 11.7524 -50.7955 12.2379L-48.8442 8.74611ZM-54.8599 7.428H-68.4119V11.428H-54.8599V7.428ZM-70.4119 9.428V18.612H-66.4119V9.428H-70.4119ZM3.17143 3.268H5.17143V1.268H3.17143V3.268ZM3.17143 9.484V11.484H5.17143V9.484H3.17143ZM-24.7166 9.484V7.484H-26.7166V9.484H-24.7166ZM-24.7166 19.228H-26.7166V21.228H-24.7166V19.228ZM-1.86856 19.228H0.131439V17.228H-1.86856V19.228ZM-1.86856 25.052V27.052H0.131439V25.052H-1.86856ZM-24.7166 25.052V23.052H-26.7166V25.052H-24.7166ZM-24.7166 39.5V41.5H-22.7166V39.5H-24.7166ZM-32.1646 39.5H-34.1646V41.5H-32.1646V39.5ZM-32.1646 3.268V1.268H-34.1646V3.268H-32.1646ZM1.17143 3.268V9.484H5.17143V3.268H1.17143ZM3.17143 7.484H-24.7166V11.484H3.17143V7.484ZM-26.7166 9.484V19.228H-22.7166V9.484H-26.7166ZM-24.7166 21.228H-1.86856V17.228H-24.7166V21.228ZM-3.86856 19.228V25.052H0.131439V19.228H-3.86856ZM-1.86856 23.052H-24.7166V27.052H-1.86856V23.052ZM-26.7166 25.052V39.5H-22.7166V25.052H-26.7166ZM-24.7166 37.5H-32.1646V41.5H-24.7166V37.5ZM-30.1646 39.5V3.268H-34.1646V39.5H-30.1646ZM-32.1646 5.268H3.17143V1.268H-32.1646V5.268ZM16.7912 3.268H18.7912V1.268H16.7912V3.268ZM16.7912 33.284H14.7912V35.284H16.7912V33.284ZM40.8712 33.284H42.8712V31.284H40.8712V33.284ZM40.8712 39.5V41.5H42.8712V39.5H40.8712ZM9.34325 39.5H7.34325V41.5H9.34325V39.5ZM9.34325 3.268V1.268H7.34325V3.268H9.34325ZM14.7912 3.268V33.284H18.7912V3.268H14.7912ZM16.7912 35.284H40.8712V31.284H16.7912V35.284ZM38.8712 33.284V39.5H42.8712V33.284H38.8712ZM40.8712 37.5H9.34325V41.5H40.8712V37.5ZM11.3432 39.5V3.268H7.34325V39.5H11.3432ZM9.34325 5.268H16.7912V1.268H9.34325V5.268ZM55.2773 37.988L54.4557 39.8115L54.4677 39.8169L54.4798 39.8221L55.2773 37.988ZM47.4373 31.492L45.7527 32.5701L45.7578 32.578L45.7629 32.5859L47.4373 31.492ZM47.4373 11.276L45.7629 10.1821L45.7578 10.19L45.7527 10.1979L47.4373 11.276ZM55.2773 4.836L56.0821 6.66695L56.0914 6.6628L55.2773 4.836ZM80.0293 4.836L79.2077 6.65947L79.2161 6.66323L79.2245 6.66693L80.0293 4.836ZM87.8133 11.276L86.1287 12.3541L86.1338 12.362L86.1389 12.3699L87.8133 11.276ZM87.8133 31.492L86.1389 30.3981L86.1338 30.406L86.1287 30.4139L87.8133 31.492ZM80.0293 37.988L80.834 39.8189L80.8424 39.8152L80.8508 39.8115L80.0293 37.988ZM75.4933 32.444L74.761 30.5828L74.7505 30.587L75.4933 32.444ZM80.8133 28.356L79.1858 27.1935L79.1779 27.2046L79.1701 27.2158L80.8133 28.356ZM80.8133 14.468L79.1701 15.6082L79.1779 15.6194L79.1858 15.6305L80.8133 14.468ZM75.4933 10.38L74.724 12.2262L74.7424 12.2338L74.761 12.2411L75.4933 10.38ZM59.7572 10.38L60.4792 12.2451L60.4922 12.2401L60.5052 12.2349L59.7572 10.38ZM54.3253 28.356L55.9527 27.1935L54.3253 28.356ZM59.7572 32.444L59.0353 34.3091L59.7572 32.444ZM67.6533 38.228C63.0364 38.228 59.1969 37.5113 56.0747 36.1539L54.4798 39.8221C58.227 41.4514 62.6381 42.228 67.6533 42.228V38.228ZM56.0988 36.1645C53.0085 34.7722 50.7088 32.8428 49.1116 30.3981L45.7629 32.5859C47.8244 35.7412 50.7513 38.1425 54.4557 39.8115L56.0988 36.1645ZM49.1218 30.4139C47.5703 27.9897 46.7493 25.0194 46.7493 21.412H42.7493C42.7493 25.6446 43.7202 29.3943 45.7527 32.5701L49.1218 30.4139ZM46.7493 21.412C46.7493 17.7631 47.5722 14.7753 49.1218 12.3541L45.7527 10.1979C43.7183 13.3767 42.7493 17.1463 42.7493 21.412H46.7493ZM49.1116 12.3699C50.7058 9.92974 52.9996 8.02186 56.082 6.66693L54.4724 3.00507C50.7603 4.6368 47.8273 7.02226 45.7629 10.1821L49.1116 12.3699ZM56.0914 6.6628C59.2086 5.27359 63.042 4.54 67.6533 4.54V0.539999C62.6325 0.539999 58.2152 1.33708 54.4631 3.0092L56.0914 6.6628ZM67.6533 4.54C72.3053 4.54 76.1342 5.2747 79.2077 6.65947L80.8508 3.01253C77.1297 1.33597 72.7078 0.539999 67.6533 0.539999V4.54ZM79.2245 6.66693C82.3043 8.02069 84.5736 9.92422 86.1287 12.3541L89.4978 10.1979C87.4689 7.02777 84.5489 4.63797 80.834 3.00507L79.2245 6.66693ZM86.1389 12.3699C87.7193 14.7889 88.5573 17.7708 88.5573 21.412H92.5573C92.5573 17.1385 91.5658 13.3631 89.4876 10.1821L86.1389 12.3699ZM88.5573 21.412C88.5573 25.0117 87.7213 27.9761 86.1389 30.3981L89.4876 32.5859C91.5639 29.4079 92.5573 25.6523 92.5573 21.412H88.5573ZM86.1287 30.4139C84.5706 32.8484 82.2953 34.7734 79.2077 36.1645L80.8508 39.8115C84.5578 38.1413 87.4719 35.7356 89.4978 32.5701L86.1287 30.4139ZM79.2245 36.1571C76.146 37.5102 72.3109 38.228 67.6533 38.228V42.228C72.7023 42.228 77.1179 41.4524 80.834 39.8189L79.2245 36.1571ZM67.6533 35.788C70.8358 35.788 73.7109 35.311 76.236 34.301L74.7505 30.587C72.7956 31.369 70.444 31.788 67.6533 31.788V35.788ZM76.2255 34.3051C78.8331 33.2792 80.9392 31.6827 82.4564 29.4962L79.1701 27.2158C78.1486 28.688 76.7081 29.8168 74.761 30.5829L76.2255 34.3051ZM82.4407 29.5185C84.0435 27.2745 84.7733 24.5254 84.7733 21.412H80.7733C80.7733 23.8986 80.1963 25.7788 79.1858 27.1935L82.4407 29.5185ZM84.7733 21.412C84.7733 18.2986 84.0435 15.5495 82.4407 13.3055L79.1858 15.6305C80.1963 17.0452 80.7733 18.9254 80.7733 21.412H84.7733ZM82.4564 13.3278C80.9392 11.1413 78.8331 9.5448 76.2255 8.51887L74.761 12.2411C76.7081 13.0072 78.1486 14.136 79.1701 15.6082L82.4564 13.3278ZM76.2625 8.53384C73.7295 7.47844 70.8448 6.98 67.6533 6.98V10.98C70.435 10.98 72.777 11.4149 74.724 12.2262L76.2625 8.53384ZM67.6533 6.98C64.4933 6.98 61.6007 7.4802 59.0093 8.52511L60.5052 12.2349C62.5431 11.4131 64.9145 10.98 67.6533 10.98V6.98ZM59.0353 8.51486C56.396 9.5365 54.2546 11.126 52.6978 13.3055L55.9527 15.6305C57.0092 14.1514 58.4891 13.0155 60.4792 12.2451L59.0353 8.51486ZM52.6978 13.3055C51.095 15.5495 50.3652 18.2986 50.3652 21.412H54.3652C54.3652 18.9254 54.9422 17.0452 55.9527 15.6305L52.6978 13.3055ZM50.3652 21.412C50.3652 24.5254 51.095 27.2745 52.6978 29.5185L55.9527 27.1935C54.9422 25.7788 54.3652 23.8986 54.3652 21.412H50.3652ZM52.6978 29.5185C54.2546 31.698 56.396 33.2875 59.0353 34.3091L60.4792 30.5789C58.4891 29.8085 57.0092 28.6726 55.9527 27.1935L52.6978 29.5185ZM59.0353 34.3091C61.6191 35.3093 64.5025 35.788 67.6533 35.788V31.788C64.9054 31.788 62.5247 31.3707 60.4792 30.5789L59.0353 34.3091ZM107.736 39.5L105.893 40.2775L106.409 41.5H107.736V39.5ZM92.4481 3.268V1.268H89.4335L90.6054 4.04551L92.4481 3.268ZM100.68 3.268L102.535 2.5202L102.03 1.268H100.68V3.268ZM113.616 35.356L113.663 37.3555L116.552 37.2883L115.471 34.6082L113.616 35.356ZM111.208 35.412L109.341 34.6962L108.273 37.4808L111.255 37.4115L111.208 35.412ZM123.528 3.268V1.268H122.153L121.661 2.55222L123.528 3.268ZM132.096 3.268L133.964 2.55222L133.471 1.268H132.096V3.268ZM144.416 35.412L144.37 37.4115L147.351 37.4808L146.284 34.6962L144.416 35.412ZM142.008 35.356L140.153 34.6082L139.073 37.2883L141.962 37.3555L142.008 35.356ZM154.944 3.268V1.268H153.594L153.089 2.5202L154.944 3.268ZM163.008 3.268L164.854 4.03824L166.01 1.268H163.008V3.268ZM147.888 39.5V41.5H149.221L149.734 40.2702L147.888 39.5ZM138.76 39.5L136.894 40.2186L137.387 41.5H138.76V39.5ZM126.664 8.084V6.084H123.751L124.798 8.80262L126.664 8.084ZM129.016 8.084L130.881 8.80552L131.934 6.084H129.016V8.084ZM116.864 39.5V41.5H118.235L118.729 40.2215L116.864 39.5ZM109.579 38.7225L94.2908 2.49048L90.6054 4.04551L105.893 40.2775L109.579 38.7225ZM92.4481 5.268H100.68V1.268H92.4481V5.268ZM98.8252 4.0158L111.761 36.1038L115.471 34.6082L102.535 2.5202L98.8252 4.0158ZM113.57 33.3565L111.162 33.4125L111.255 37.4115L113.663 37.3555L113.57 33.3565ZM113.076 36.1278L125.396 3.98378L121.661 2.55222L109.341 34.6962L113.076 36.1278ZM123.528 5.268H132.096V1.268H123.528V5.268ZM130.229 3.98378L142.549 36.1278L146.284 34.6962L133.964 2.55222L130.229 3.98378ZM144.463 33.4125L142.055 33.3565L141.962 37.3555L144.37 37.4115L144.463 33.4125ZM143.863 36.1038L156.799 4.0158L153.089 2.5202L140.153 34.6082L143.863 36.1038ZM154.944 5.268H163.008V1.268H154.944V5.268ZM161.162 2.49776L146.042 38.7298L149.734 40.2702L164.854 4.03824L161.162 2.49776ZM147.888 37.5H138.76V41.5H147.888V37.5ZM140.627 38.7814L128.531 7.36537L124.798 8.80262L136.894 40.2186L140.627 38.7814ZM126.664 10.084H129.016V6.084H126.664V10.084ZM127.151 7.36248L114.999 38.7785L118.729 40.2215L130.881 8.80552L127.151 7.36248ZM116.864 37.5H107.736V41.5H116.864V37.5Z" fill="#CBCBCB" mask="url(#path-1-outside-1_4576_44)"/>
</svg>
