<svg width="103" height="85" viewBox="0 0 103 85" fill="none" xmlns="http://www.w3.org/2000/svg">
<path d="M48.6465 84.8538L0.646477 84.8538L0.64648 43.7765C0.646482 25.4066 10.105 12.3095 29.0222 4.48523C32.7349 2.9544 36.978 1.50862 41.7515 0.14788L48.5139 13.9253C37.641 17.5823 31.0553 22.3024 28.757 28.0855C27.6962 30.6369 27.1658 33.6985 27.1658 37.2705L48.6465 37.2705L48.6465 84.8538Z" fill="#CBCBCB" fill-opacity="0.48"/>
<path d="M102.293 84.8538L54.293 84.8538L54.293 43.7765C54.293 25.4066 63.7515 12.3095 82.6687 4.48523C86.3814 2.9544 90.6245 1.50862 95.3979 0.14788L102.16 13.9253C91.2874 17.5823 84.7018 22.3024 82.4035 28.0855C81.3427 30.6369 80.8123 33.6985 80.8123 37.2705L102.293 37.2705L102.293 84.8538Z" fill="#CBCBCB" fill-opacity="0.48"/>
</svg>
